<svg xmlns="http://www.w3.org/2000/svg" viewBox="0 0 46.63 45.18"><defs><style>.cls-1{fill:#fff;}</style></defs><g id="Layer_2" data-name="Layer 2"><g id="Layer_1-2" data-name="Layer 1"><path class="cls-1" d="M18.32,23.91c-5.85-5.86-7.27-13.62-3.21-17.68,2.06-2.06,5.12-2.77,8.63-2a18.87,18.87,0,0,1,9,5.22l-3,3C25.8,8.53,20.37,7,18.14,9.26s-.73,7.67,3.22,11.62Z"/><path class="cls-1" d="M34.07,40.87l-3-3c4-4,5.45-9.38,3.21-11.61s-7.66-.73-11.61,3.22l-3-3a19,19,0,0,1,9-5.22c3.51-.77,6.57-.06,8.64,2C41.34,27.25,39.93,35,34.07,40.87Z"/><path class="cls-1" d="M15.32,40.87a8.2,8.2,0,0,1-6-2.3c-2.06-2.06-2.77-5.13-2-8.63a18.78,18.78,0,0,1,5.22-9l3,3c-3.95,3.95-5.45,9.38-3.22,11.61S20,36.27,24,32.32l3,3a19,19,0,0,1-9,5.22A12.54,12.54,0,0,1,15.32,40.87Z"/><path class="cls-1" d="M38.66,45.18H8a5.49,5.49,0,0,1-5.46-5.13L0,.09,1.43,0,3.94,40a4,4,0,0,0,4,3.79H38.66a4.06,4.06,0,0,0,4-3.79L45.21,0l1.42.09-2.51,40A5.49,5.49,0,0,1,38.66,45.18Z"/></g></g></svg>