<svg xmlns="http://www.w3.org/2000/svg" viewBox="0 0 48.94 48.94"><defs><style>.cls-1{fill:none;opacity:0.5;}.cls-1,.cls-2{stroke:#37b34a;stroke-miterlimit:10;stroke-width:3px;}</style></defs><g id="Layer_2" data-name="Layer 2"><g id="Layer_1-2" data-name="Layer 1"><path class="cls-1" d="M24.47,24.47A11.48,11.48,0,0,1,40.71,40.71Zm0,0A11.48,11.48,0,0,1,8.23,8.23Zm0,0A11.48,11.48,0,0,1,40.71,8.23Zm0,0A11.48,11.48,0,1,1,8.23,40.71Z"/><path class="cls-2" d="M24.47,24.47a11.49,11.49,0,1,1,23,0Zm0,0A11.59,11.59,0,0,1,13,36,11.58,11.58,0,0,1,1.5,24.47Zm0,0A11.59,11.59,0,0,1,13,13,11.59,11.59,0,0,1,24.47,1.5Zm0,0a11.49,11.49,0,0,1,0,23Z"/></g></g></svg>