<svg xmlns="http://www.w3.org/2000/svg" viewBox="0 0 61.67 82"><defs><style>.cls-1{fill:#37b34a;}</style></defs><g id="Layer_2" data-name="Layer 2"><g id="Layer_1-2" data-name="Layer 1"><path class="cls-1" d="M58.62.54A4.33,4.33,0,0,0,56.49,0a4.85,4.85,0,0,0-2.13.54,7,7,0,0,1-3.06.72A6.85,6.85,0,0,1,48.23.54,4.39,4.39,0,0,0,46.1,0,4.69,4.69,0,0,0,44,.54a7.5,7.5,0,0,1-2.75.71h-.31A7.2,7.2,0,0,1,38.16.54,4.39,4.39,0,0,0,36,0,4.78,4.78,0,0,0,33.9.54a7,7,0,0,1-3.07.72A6.84,6.84,0,0,1,27.77.54,4.45,4.45,0,0,0,25.64,0a4.62,4.62,0,0,0-2.13.54,7.5,7.5,0,0,1-2.75.71h-.32A7.25,7.25,0,0,1,17.69.54,4.33,4.33,0,0,0,15.56,0a4.85,4.85,0,0,0-2.13.54,6.94,6.94,0,0,1-3.06.72A6.89,6.89,0,0,1,7.3.54,4.39,4.39,0,0,0,5.17,0,4.69,4.69,0,0,0,3,.54a7.13,7.13,0,0,1-3,.72V75a7,7,0,0,0,7,7H54.67a7,7,0,0,0,7-7V1.26A7,7,0,0,1,58.62.54Z"/></g></g></svg>