<svg xmlns="http://www.w3.org/2000/svg" viewBox="0 0 58.85 39.56"><defs><style>.cls-1{fill:#333;}</style></defs><g id="Layer_2" data-name="Layer 2"><g id="Layer_1-2" data-name="Layer 1"><path class="cls-1" d="M40.17,11.13V7.84h3.65v-3A4.83,4.83,0,0,0,39,0H19.85A4.83,4.83,0,0,0,15,4.83v3h3.65v3.29L0,11.82V16H2v9.6H56.82V16h2V11.82ZM55.44,24.21h-52V16h52Zm0-9.6H1.38V13.15l18.68-.69v-6H16.4V4.83a3.46,3.46,0,0,1,3.45-3.45H39a3.45,3.45,0,0,1,3.44,3.45V6.46H38.79v6l18.68.69v1.46Z"/><path class="cls-1" d="M44,36c-2.63,0-4.94-4.08-4.94-8.74H34.37c0,4.66-2.31,8.74-4.95,8.74s-4.94-4.08-4.94-8.74H19.79c0,4.66-2.31,8.74-4.94,8.74S9.9,31.91,9.9,27.25H6.32c0,6.91,3.75,12.31,8.53,12.31,3.13,0,5.81-2.33,7.28-5.87,1.48,3.54,4.16,5.87,7.29,5.87s5.81-2.33,7.29-5.87c1.48,3.54,4.16,5.87,7.29,5.87,4.78,0,8.52-5.4,8.52-12.31H49C49,31.91,46.64,36,44,36Z"/></g></g></svg>